HIERARCHY
ROOT Hips
{
    OFFSET 0.0 0.0 0.0
    CHANNELS 6 Xposition Yposition Zposition Zrotation Xrotation Yrotation
    JOINT Spine
    {
        OFFSET 0.0 5.0 0.0
        CHANNELS 3 Zrotation Xrotation Yrotation
        JOINT Chest
        {
            OFFSET 0.0 5.0 0.0
            CHANNELS 3 Zrotation Xrotation Yrotation
            JOINT Neck
            {
                OFFSET 0.0 8.0 0.0
                CHANNELS 3 Zrotation Xrotation Yrotation
                JOINT Head
                {
                    OFFSET 0.0 5.0 0.0
                    CHANNELS 3 Zrotation Xrotation Yrotation
                    End Site
                    {
                        OFFSET 0.0 3.0 0.0
                    }
                }
            }
            JOINT LeftShoulder
            {
                OFFSET -5.0 0.0 0.0
                CHANNELS 3 Zrotation Xrotation Yrotation
                JOINT LeftArm
                {
                    OFFSET 0.0 -10.0 0.0
                    CHANNELS 3 Zrotation Xrotation Yrotation
                    JOINT LeftForeArm
                    {
                        OFFSET 0.0 -10.0 0.0
                        CHANNELS 3 Zrotation Xrotation Yrotation
                        End Site
                        {
                            OFFSET 0.0 -3.0 0.0
                        }
                    }
                }
            }
        }
    }
}

MOTION
Frames: 33
Frame Time: 0.033333
970.000000 442.938926 121.588053 0.000000 0.000000 0.000000 0.000000 0.000000 0.000000 29.678605 17.930370 0.000000 180.000000 -1.126258 0.000000 29.744881 5.968700 -0.000000 150.255119 2.835371 30.000000 19.983107 -1.744064 0.000000 18.000000 0.704679 0.000000
1354.522934 467.411410 127.382077 0.000000 0.000000 0.000000 0.000000 0.000000 0.000000 150.622570 -7.184758 4.973798 -29.377430 -4.209963 4.973798 140.176400 8.303208 3.759997 -12.221629 5.474053 29.763441 132.794256 5.133299 -3.759997 -2.626015 -0.415796 0.313953
969.997807 442.887864 118.530173 0.000000 0.000000 0.000000 0.000000 0.000000 0.000000 31.061399 -26.308026 9.635073 180.000000 17.347903 9.635073 30.285790 -10.952986 7.460697 149.714210 11.290962 29.057495 19.151579 0.237066 -7.460697 18.000000 -0.491829 0.626666
1246.736984 514.278152 118.922568 0.000000 0.000000 0.000000 0.000000 0.000000 0.000000 143.557092 -14.715956 13.690942 -36.442908 8.117541 13.690942 133.761037 -0.603241 11.043737 -156.950665 -5.192521 27.893295 0.000000 0.000000 0.000000 1.928484 0.380011 0.936907
1245.221100 458.637464 114.970491 0.000000 0.000000 0.000000 0.000000 0.000000 0.000000 160.701064 7.417540 16.886559 -19.298936 -2.102880 16.886559 140.193827 -4.495521 14.452610 -157.554825 -5.846726 26.289200 29.500467 4.829622 -14.452610 -15.049953 -0.482962 1.243449
1257.365570 418.514181 105.246394 0.000000 0.000000 0.000000 0.000000 0.000000 0.000000 -143.710676 9.601943 19.021130 36.289324 -19.568064 19.021130 163.220413 9.738762 17.633558 11.688054 -1.776927 24.270510 152.038385 -0.147323 -17.633558 -2.339948 -0.225970 1.545085
1275.099564 408.163741 106.525048 0.000000 0.000000 0.000000 0.000000 0.000000 0.000000 -132.929531 -13.399177 19.960535 47.070469 3.662116 19.960535 173.491912 -0.252598 20.536413 -160.709681 -4.699268 21.869059 33.138793 4.464292 -20.536413 -14.686121 -0.446429 1.840623
1290.611115 384.880857 116.694003 0.000000 0.000000 0.000000 0.000000 0.000000 0.000000 -132.705235 16.371539 19.645745 47.294765 -1.057550 19.645745 -173.778854 0.886617 23.115397 20.496835 -1.534378 19.122720 -161.220290 -4.017489 -23.115397 1.723235 0.390069 2.128896
1302.817154 380.305352 86.371490 0.000000 0.000000 0.000000 0.000000 0.000000 0.000000 -131.493915 6.555272 18.096541 48.506085 -11.975859 18.096541 -165.393697 0.115319 25.329838 23.154815 -5.667314 16.074804 -178.200316 -0.225826 -25.329838 0.138141 -0.035480 2.408768
1304.997711 379.563582 100.692897 0.000000 0.000000 0.000000 0.000000 0.000000 0.000000 -126.727972 -9.144555 15.410265 53.272028 4.116629 15.410265 -160.219593 1.254198 27.144812 28.448880 6.262232 12.773379 -174.368770 -2.091634 -27.144812 0.079526 0.083992 2.679134
1311.668472 386.890390 81.372449 0.000000 0.000000 0.000000 0.000000 0.000000 0.000000 -122.308728 -4.333630 11.755705 57.691272 1.306410 11.755705 -158.801130 4.607188 28.531695 150.942637 5.607898 9.270510 -154.878332 -4.342861 -28.531695 2.695409 0.591590 2.938926
1305.131836 395.180186 75.388941 0.000000 0.000000 0.000000 0.000000 0.000000 0.000000 -125.112810 3.711632 7.362491 54.887190 7.139770 7.362491 -146.487292 4.150269 29.468618 -175.167369 -3.624884 5.621439 -159.224034 -3.665155 -29.468618 1.782042 0.498153 3.187120
1296.320457 392.734526 68.534088 0.000000 0.000000 0.000000 0.000000 0.000000 0.000000 -131.035750 0.156877 2.506665 48.964250 3.831182 2.506665 -128.969563 -2.044033 29.940802 38.856147 -1.311281 1.883716 -134.776850 0.280519 -29.940802 3.458429 0.052036 3.422736
1306.963577 386.612041 77.007067 0.000000 0.000000 0.000000 0.000000 0.000000 0.000000 -124.469622 -9.978440 -2.506665 55.530378 9.961606 -2.506665 -109.994856 -1.697114 29.940802 37.691309 1.409025 -1.883716 -118.274788 1.782280 -29.940802 5.098336 0.008173 3.644843
969.892723 442.572198 69.664249 0.000000 0.000000 0.000000 0.000000 0.000000 0.000000 41.287575 -3.578052 -7.362491 180.000000 16.498210 -7.362491 30.974696 -19.267262 29.468618 149.025304 -0.171181 -5.621439 15.072869 -3.039349 -29.468618 18.000000 0.160600 3.852566
969.876883 442.545207 44.499672 0.000000 0.000000 0.000000 0.000000 0.000000 0.000000 42.241956 -45.461164 -11.755705 180.000000 18.667088 -11.755705 30.826133 -13.001093 28.531695 149.173867 9.991538 -9.270510 14.823070 4.107004 -28.531695 18.000000 -0.528682 4.045085
969.859960 442.518116 50.534643 0.000000 0.000000 0.000000 0.000000 0.000000 0.000000 43.199779 -50.771699 -15.410265 180.000000 4.226066 -15.410265 30.649504 2.989374 27.144812 149.350496 -4.432214 -12.773379 14.587557 11.129825 -27.144812 18.000000 -0.170779 4.221640
969.841956 442.490926 69.191837 0.000000 0.000000 0.000000 0.000000 0.000000 0.000000 44.157210 38.360418 -18.096541 180.000000 -11.954691 -18.096541 30.446417 -4.744471 25.329838 149.553583 -5.906174 -16.074804 14.366154 0.120157 -25.329838 18.000000 -0.522807 4.381533
969.822873 442.463637 37.165182 0.000000 0.000000 0.000000 0.000000 0.000000 0.000000 45.110117 -29.710208 -19.645745 180.000000 34.454727 -19.645745 30.218633 -15.438590 23.115397 149.781367 6.240414 -19.122720 14.158653 3.733635 -23.115397 18.000000 -0.297248 4.524135
969.802712 442.436251 46.235926 0.000000 0.000000 0.000000 0.000000 0.000000 0.000000 46.054109 -27.618219 -19.960535 180.000000 12.977497 -19.960535 29.968037 0.331535 20.536413 150.031963 2.566345 -21.869059 13.964823 -0.307218 -20.536413 18.000000 -0.290605 4.648882
1187.040939 541.658249 42.244952 0.000000 0.000000 0.000000 0.000000 0.000000 0.000000 82.806623 8.069381 -19.021130 -97.193377 7.134354 -19.021130 45.395981 -9.871450 17.633558 -156.144455 -2.373528 -24.270510 0.000000 0.000000 0.000000 0.000000 0.000000 0.000000
1182.242889 522.024286 39.939029 0.000000 0.000000 0.000000 0.000000 0.000000 0.000000 -105.721938 10.069986 -16.886559 74.278062 -22.182111 -16.886559 -155.708006 -1.638851 14.452610 -157.302521 -2.524071 -26.289200 0.000000 0.000000 0.000000 2.684983 0.192190 4.842916
1180.914459 527.065626 57.710941 0.000000 0.000000 0.000000 0.000000 0.000000 0.000000 88.055617 -2.435008 -13.690942 -91.944383 -0.810413 -13.690942 -158.862018 -2.040901 11.043737 -151.747289 -2.026542 -27.893295 0.000000 0.000000 0.000000 0.000000 0.000000 0.000000
1236.800194 541.387432 52.024328 0.000000 0.000000 0.000000 0.000000 0.000000 0.000000 -85.588400 -0.459174 -9.635073 94.411600 0.366795 -9.635073 -159.297106 7.138060 7.460697 -157.915391 -1.894587 -29.057495 26.607362 2.775789 -7.460697 14.926890 -0.838788 4.960574
1161.066513 575.006626 44.330500 0.000000 0.000000 0.000000 0.000000 0.000000 0.000000 -81.021168 7.366248 -4.973798 98.978832 -7.094894 -4.973798 -102.851701 3.335775 3.759997 -157.041007 -3.177907 -29.763441 21.429890 2.711411 -3.759997 10.859432 -0.790524 4.990134
1255.636253 512.645942 43.238829 0.000000 0.000000 0.000000 0.000000 0.000000 0.000000 77.832564 4.562435 -0.000000 -102.167436 -9.176657 -0.000000 -158.264834 -2.134369 0.000000 -130.745502 -2.700003 -30.000000 -157.699225 -3.101595 -0.000000 0.000000 0.000000 0.000000
1265.118484 521.473864 52.298114 0.000000 0.000000 0.000000 0.000000 0.000000 0.000000 64.078276 -1.124387 4.973798 -115.921724 -7.129066 4.973798 41.397952 6.299253 -3.759997 -139.329851 -1.086444 -29.763441 20.223252 -1.060506 3.759997 -16.047574 0.179589 4.990134
1228.099480 522.138258 47.104462 0.000000 0.000000 0.000000 0.000000 0.000000 0.000000 71.050901 0.674112 9.635073 -108.949099 -10.408431 9.635073 150.099970 8.694527 -7.460697 -139.894702 -4.234970 -29.057495 -156.275691 -2.310440 7.460697 0.000000 0.000000 0.000000
1240.357246 528.695873 49.165361 0.000000 0.000000 0.000000 0.000000 0.000000 0.000000 65.413351 3.365552 13.690942 -114.586649 -8.237542 13.690942 147.242328 -5.724481 -11.043737 -154.470720 -3.278092 -27.893295 25.557225 2.643654 11.043737 -15.444278 -0.264365 4.911436
1231.815262 551.380248 82.123677 0.000000 0.000000 0.000000 0.000000 0.000000 0.000000 56.412506 -0.475556 16.886559 -123.587494 -15.456533 16.886559 -153.392336 9.753255 -14.452610 -154.784582 -2.711265 -26.289200 24.191555 3.976368 14.452610 -15.580844 -0.397637 4.842916
1221.475182 508.360147 54.973447 0.000000 0.000000 0.000000 0.000000 0.000000 0.000000 77.450622 -8.769613 19.021130 -102.549378 6.633851 19.021130 -156.789784 -3.575426 -17.633558 -125.590168 -3.231968 -24.270510 -160.017240 -2.766816 17.633558 1.833434 0.504365 4.755283
969.477684 442.100429 50.697153 0.000000 0.000000 0.000000 0.000000 0.000000 0.000000 54.932575 19.626872 19.960535 180.000000 -0.866097 19.960535 25.919122 8.384245 -20.536413 154.080878 18.332217 -21.869059 12.612867 -11.561401 20.536413 18.000000 0.495663 4.648882
1480.140495 518.878891 78.149999 0.000000 0.000000 0.000000 0.000000 0.000000 0.000000 -110.621767 82.505990 19.645745 69.378233 88.064763 19.645745 -158.235933 -3.498993 -23.115397 166.031448 -4.852262 -19.122720 -155.186432 -2.475682 23.115397 2.641553 0.282645 4.524135
